<svg width="16" height="16" viewBox="0 0 16 16" fill="none" xmlns="http://www.w3.org/2000/svg">
    <path d="M5.51986 1.66697C5.93986 1.67975 6.34653 1.75308 6.74053 1.88708H6.77986C6.80653 1.89975 6.82653 1.91375 6.83986 1.92641C6.98719 1.97375 7.12653 2.02708 7.25986 2.10041L7.51319 2.21375C7.61319 2.26708 7.73319 2.36641 7.79986 2.40708C7.86653 2.44641 7.93986 2.48708 7.99986 2.53308C8.74053 1.96708 9.63986 1.66041 10.5665 1.66697C10.9872 1.66697 11.4072 1.72641 11.8065 1.86041C14.2672 2.66041 15.1539 5.36041 14.4132 7.72041C13.9932 8.92641 13.3065 10.0271 12.4072 10.9264C11.1199 12.1731 9.70719 13.2797 8.18653 14.2331L8.01986 14.3337L7.84653 14.2264C6.32053 13.2797 4.89986 12.1731 3.60053 10.9197C2.70719 10.0204 2.01986 8.92641 1.59319 7.72041C0.839861 5.36041 1.72653 2.66041 4.21386 1.84641C4.40719 1.77975 4.60653 1.73308 4.80653 1.70708H4.88653C5.07386 1.67975 5.25986 1.66697 5.44653 1.66697H5.51986ZM11.4599 3.77375C11.1865 3.67975 10.8865 3.82708 10.7865 4.10708C10.6932 4.38708 10.8399 4.69375 11.1199 4.79308C11.5472 4.95308 11.8332 5.37375 11.8332 5.83975V5.86041C11.8205 6.01308 11.8665 6.16041 11.9599 6.27375C12.0532 6.38708 12.1932 6.45308 12.3399 6.46708C12.6132 6.45975 12.8465 6.24041 12.8665 5.95975V5.88041C12.8865 4.94641 12.3205 4.10041 11.4599 3.77375Z" fill="#CED55B"/>
</svg>
