<svg width="17" height="17" viewBox="0 0 17 17" fill="none" xmlns="http://www.w3.org/2000/svg">
<path d="M4.16667 8.33331H12.5" stroke="#C1C2B8" stroke-width="1.5" stroke-linecap="round" stroke-linejoin="round"/>
</svg>

<svg width="12" height="12" viewBox="0 0 12 12" fill="none" xmlns="http://www.w3.org/2000/svg">
<path d="M10.86 2.46001C10.02 2.38001 9.25 2.33001 8.5 2.28001L8.42 1.80001C8.35 1.32001 8.20001 0.330017 6.69001 0.330017H5.30001C3.81001 0.330017 3.65001 1.28002 3.57001 1.79002L3.49001 2.26001C3.06001 2.29001 2.64001 2.31001 2.21001 2.35001L1.12 2.46001C0.74 2.50001 0.469999 2.83001 0.509999 3.21001C0.549999 3.56001 0.840007 3.83002 1.19001 3.83002C1.21001 3.83002 1.24 3.83002 1.26 3.83002L2.34 3.72002C2.94 3.67002 3.55 3.62002 4.15 3.59002C5.37 3.54002 6.59001 3.56001 7.82001 3.62001C8.73001 3.66001 9.68001 3.73002 10.72 3.83002C10.74 3.83002 10.76 3.83002 10.78 3.83002C11.13 3.83002 11.43 3.56001 11.46 3.21001C11.51 2.83001 11.24 2.49001 10.86 2.46001Z" fill="#A6A798"/>
<path d="M9.83001 5.09999C9.66001 4.90999 9.41001 4.81 9.16001 4.81H2.84C2.59 4.81 2.34 4.91999 2.17 5.09999C2 5.28999 1.91 5.54 1.93 5.79L2.24001 9.75C2.30001 10.6 2.37 11.66 4.29 11.66H7.71001C9.63001 11.66 9.7 10.6 9.76 9.75L10.07 5.79C10.09 5.54 10 5.28999 9.83001 5.09999Z" fill="#A6A798"/>
</svg>
